<svg width="20" height="22" viewBox="0 0 20 22" fill="none" xmlns="http://www.w3.org/2000/svg">
<path d="M10.147 20.2651L10 20.2351L9.853 20.2651C7.476 20.7401 5.233 20.4751 3.593 19.1651C1.964 17.8601 0.75 15.3731 0.75 11.0001C0.75 6.52709 1.758 4.71009 3.085 4.04609C3.78 3.69909 4.678 3.59809 5.82 3.72909C6.961 3.86109 8.278 4.21709 9.763 4.71209L10.023 4.79809L10.278 4.69609C12.76 3.70409 14.991 3.32309 16.558 4.05509C18.028 4.74009 19.25 6.59309 19.25 11.0001C19.25 15.3741 18.037 17.8601 16.407 19.1641C14.767 20.4761 12.524 20.7411 10.147 20.2651Z" stroke="#535353" stroke-width="1.5"/>
<path d="M10 4.5C10 2 9 1 7 1" stroke="#535353" stroke-width="1.5" stroke-linecap="round" stroke-linejoin="round"/>
</svg>
