<svg width="19" height="19" viewBox="0 0 19 19" fill="none" xmlns="http://www.w3.org/2000/svg">
<path d="M12 12L14.045 10.467C16.469 8.648 17.542 4.98 17 2C14.019 1.458 10.351 2.531 8.533 4.955L7 7M12 12L8.5 14.5L4.5 10.5L7 7M12 12V14.667C12 15.5325 11.7193 16.3746 11.2 17.067L10.5 18L9.5 17M7 7H4.333C3.46752 7 2.62538 7.28071 1.933 7.8L1 8.5L2 9.5M5.5 16L2 17L3.166 13.5M12.5 7.5C12.7652 7.5 13.0196 7.39464 13.2071 7.20711C13.3946 7.01957 13.5 6.76522 13.5 6.5C13.5 6.23478 13.3946 5.98043 13.2071 5.79289C13.0196 5.60536 12.7652 5.5 12.5 5.5C12.2348 5.5 11.9804 5.60536 11.7929 5.79289C11.6054 5.98043 11.5 6.23478 11.5 6.5C11.5 6.76522 11.6054 7.01957 11.7929 7.20711C11.9804 7.39464 12.2348 7.5 12.5 7.5Z" stroke="#D9D9D9" stroke-width="2" stroke-linecap="round" stroke-linejoin="round"/>
</svg>
