<svg width="20" height="20" viewBox="0 0 20 20" fill="none" xmlns="http://www.w3.org/2000/svg">
<g clip-path="url(#clip0_52_183)">
<path d="M19.3375 14.0816C19.3147 13.8319 19.2928 13.5966 19.3088 13.4187C19.4497 11.8478 18.9919 10.4316 17.985 9.32406C16.8428 8.0675 15.0422 7.31719 13.1688 7.31719C10.56 7.31719 8.37346 8.68406 7.3194 10.9738C7.3169 10.9797 7.31377 10.9856 7.31158 10.9916C7.0694 10.1 6.82502 9.48125 6.6294 8.98531C6.29877 8.14656 6.12127 7.69688 6.26346 6.71063C6.5215 6.68255 6.76349 6.57159 6.95315 6.39437C6.98596 6.39656 7.02002 6.39813 7.0544 6.39813C7.40908 6.39813 7.71658 6.26375 7.93877 6.02437L7.96627 6.02469C8.40784 6.02469 8.78377 5.83375 9.03409 5.49688C9.64471 5.44563 10.0666 5.0775 10.15 4.51031C10.2625 3.74906 9.99627 1.61844 9.42096 0.947812C9.19283 0.68125 8.94096 0.625 8.77034 0.625C7.7969 0.625 6.2744 0.849688 4.9819 1.18375C2.62627 1.7925 2.25815 2.40719 2.19971 2.875C1.96065 4.80531 1.60627 6.52719 1.29315 8.04656C0.849398 10.1991 0.499086 11.8994 0.66846 13.2362C0.734398 13.7578 0.865961 14.2053 0.992836 14.6375C1.15159 15.1769 1.31502 15.7347 1.37034 16.4975C1.44627 17.5578 2.59127 18.1659 4.5119 18.1659C5.26471 18.1659 6.03252 18.0678 6.66252 17.8931C7.43502 18.2631 9.98408 19.375 12.7066 19.375C13.6428 19.375 14.515 19.2413 15.3 18.9775C19.3166 17.6256 19.4969 15.8175 19.3375 14.0816ZM1.28877 13.1572C1.01815 11.0219 2.24721 7.57969 2.82034 2.95281C2.91752 2.17 6.48065 1.35063 8.44065 1.26219C8.36096 1.32625 8.30377 1.41031 8.29627 1.49969C8.53127 1.39312 8.88221 1.35875 9.0544 1.71C9.06346 1.65125 9.06721 1.59906 9.06721 1.55031C9.15721 1.72656 9.2394 1.96688 9.30877 2.24063C9.39596 2.63438 9.44471 3.03813 9.44565 3.44344C9.44627 3.725 9.50752 4.72875 9.04408 4.59812C8.75846 4.5175 8.75127 4.25406 8.66971 3.98281C8.54408 3.55875 8.32283 3.07 8.34971 2.61937C8.24065 3.06156 8.37033 3.59219 8.41846 4.03937C8.44596 4.29969 8.62596 5.00312 8.30721 5.09906C8.13096 5.15312 7.92659 5.02906 7.78065 4.93813C7.72502 4.90313 7.68346 4.64719 7.66315 4.57531C7.53752 4.13594 7.31252 3.63062 7.34127 3.16906C7.23127 3.58531 7.33846 4.08687 7.37346 4.51344C7.39502 4.77781 7.52846 5.35094 7.23033 5.48406C6.89283 5.66062 6.84096 5.2325 6.77846 5.00812C6.66252 4.59156 6.47409 4.13594 6.47909 3.69906C6.36127 4.23125 6.49971 4.85437 6.52252 5.39937C6.53471 5.67 5.96752 5.91437 5.75596 5.74437C5.4244 5.47781 5.36846 4.85375 5.33096 4.45031C5.43033 4.58594 5.57284 4.76125 5.75377 4.74344C5.60002 4.56812 5.53471 4.2675 5.4319 4.05437C5.33752 3.87937 5.14596 3.46281 4.92065 3.45594C4.95534 3.53063 5.14534 4.04531 5.11596 4.09969C5.0244 4.27 4.93534 4.44312 4.83346 4.60625C4.7469 4.74344 4.49565 5.18063 4.29284 5.04844C4.07377 4.90656 3.93627 4.27125 3.93627 4.27125C3.93627 4.27125 3.9444 5.06344 4.22752 5.24688C4.49565 5.42125 4.80127 5.14625 4.97877 4.95C5.01409 5.32656 5.11596 5.76812 5.34377 6.05937C4.6744 9.02781 5.90659 8.99813 6.73721 12.9663C6.73721 12.9663 7.28471 12.1591 7.76346 11.1194C8.80815 8.85 10.9872 7.83875 13.0878 7.83875C15.171 7.83875 17.4016 8.90375 18.2122 10.745C18.48 11.3531 18.5466 12.08 18.4741 12.8806C18.3556 14.1847 19.6425 16.3062 14.8422 17.9003C11.0331 19.165 6.34815 16.74 6.34815 16.74C5.06315 17.16 2.05815 17.3434 1.99471 16.4534C1.89002 14.9956 1.42721 14.2534 1.28877 13.1572Z" fill="#535353"/>
<path d="M10.7016 16.7406C11.5381 17.0475 12.4472 17.1309 13.3241 17.0265C14.2016 16.9203 15.0603 16.6337 15.8084 16.1506C16.1797 15.9075 16.525 15.615 16.8028 15.264C17.0744 14.9118 17.2944 14.505 17.3453 14.0734C16.8053 14.734 16.1184 15.0978 15.4106 15.3868C14.6991 15.6681 13.9506 15.8434 13.1962 15.9337C12.4412 16.0209 11.6791 16.0218 10.9241 15.9046C10.1364 15.782 9.37704 15.5191 8.68218 15.1284C9.10843 15.879 9.87093 16.4343 10.7016 16.7406ZM7.98937 2.14058C8.12187 1.28152 7.26062 1.56433 7.23062 1.93058C7.46562 1.8237 7.81718 1.78964 7.98937 2.14058ZM7.1378 2.61558C7.27062 1.7562 6.40968 2.03839 6.37968 2.40589C6.61468 2.29808 6.96593 2.26433 7.1378 2.61558ZM6.15437 3.11152C6.28718 2.25245 5.42624 2.53495 5.39624 2.90183C5.63155 2.79402 5.98218 2.76058 6.15437 3.11152Z" fill="#535353"/>
</g>
<defs>
<clipPath id="clip0_52_183">
<rect width="20" height="20" fill="white"/>
</clipPath>
</defs>
</svg>
